<?xml version="1.0" encoding="UTF-8" standalone="no"?>
<!-- Created with Inkscape (http://www.inkscape.org/) -->

<svg
   width="15.875mm"
   height="15.875mm"
   viewBox="0 0 15.875 15.875"
   version="1.1"
   id="svg626"
   xmlns="http://www.w3.org/2000/svg"><defs
     id="defs623"><linearGradient
       id="linearGradient1458"><stop
         style="stop-color:#ffffff;stop-opacity:1;"
         offset="0"
         id="stop1456" /></linearGradient><linearGradient
       id="linearGradient1452"><stop
         offset="0"
         id="stop1450" /></linearGradient><linearGradient
       id="linearGradient1340"><stop
         offset="0"
         id="stop1338" /></linearGradient><linearGradient
       xlink:href="#linearGradient1340"
       id="linearGradient1342"
       x1="-182.18008"
       y1="117.09532"
       x2="45.439194"
       y2="117.09532"
       gradientUnits="userSpaceOnUse" /><linearGradient
       xlink:href="#linearGradient1340"
       id="linearGradient1746"
       gradientUnits="userSpaceOnUse"
       x1="-182.18008"
       y1="117.09532"
       x2="45.439194"
       y2="117.09532" /><linearGradient
       xlink:href="#linearGradient1340"
       id="linearGradient1748"
       gradientUnits="userSpaceOnUse"
       x1="-182.18008"
       y1="117.09532"
       x2="45.439194"
       y2="117.09532" /></defs><g
     id="layer1"
     transform="translate(0,0.91207293)"
     style="fill:#ffffff"><g
       id="g255"
       transform="matrix(0.06458648,0,0,0.07967046,21.823824,-1.4038635)"
       style="fill:#ffffff"><g
         id="g1744"
         transform="translate(-147.14163,-11.788688)"
         style="stroke-width:0;stroke-dasharray:none"><path
           id="path780"
           style="fill:#0000b0;fill-opacity:1;stroke:url(#linearGradient1746);stroke-width:0;stroke-dasharray:none"
           d="m -161.18803,166.19564 c 0.18803,-0.4082 0.14391,-0.34404 0.34405,-0.77835 1.10785,-2.40403 3.09146,-6.97569 4.40862,-10.1575 1.31716,-3.1818 4.15862,-10.0098 6.31289,-15.1714 2.15424,-5.1616 4.65622,-11.40587 5.56078,-13.88062 0.90455,-2.47474 1.98784,-5.1377 2.40033,-5.91548 1.21021,-2.28188 4.46459,-11.02114 7.48105,-19.65341 3.01646,-8.632263 5.79265,-17.158926 6.02485,-19.004775 0.11519,-0.915664 0.0557,-1.304853 -0.22403,-1.472384 -0.40773,-0.244303 -1.15236,-0.284878 -2.17631,-0.142698 -1.02395,0.14218 -2.32443,0.462232 -3.84854,0.953482 -3.04822,0.982501 -6.98517,2.626078 -11.33759,4.780383 -3.69696,1.829877 -7.18946,3.751095 -10.48947,5.75981 -3.30001,2.008716 -6.40345,4.106475 -9.31331,6.298171 -1.88293,1.41822 -3.47525,2.552601 -4.86468,3.444211 -1.38943,0.89161 -2.58029,1.54309 -3.66451,1.9848 -1.08422,0.4417 -2.05713,0.67741 -3.02443,0.74592 -0.74572,0.0528 -1.51299,-0.0725 -2.28832,-0.20107 a 113.80964,86.788742 0 0 0 -2.29632,13.30983 113.80964,86.788742 0 0 0 20.99494,49.10108 z" /><path
           id="path1351"
           style="fill:#0000b0;fill-opacity:1;stroke:url(#linearGradient1748);stroke-width:0;stroke-dasharray:none"
           d="m 33.383266,78.228812 c -2.805299,1.38939 -5.4154,2.698446 -9.417321,4.462556 -2.285747,1.00759 -4.020582,1.713501 -5.760808,2.302626 -1.740226,0.589126 -3.481443,1.062615 -5.784811,1.608596 -1.741671,0.412835 -3.8314194,0.990336 -4.6406513,1.284282 -1.3676711,0.496785 -2.7672595,0.81878 -4.6646542,1.018345 -1.8973947,0.199564 -4.2920116,0.273111 -7.6410718,0.272423 -4.1150859,-8.5e-4 -8.0921367,-0.158352 -12.1617057,-0.499443 -4.069569,-0.341091 -8.23188,-0.861596 -12.729786,-1.58265 -3.777268,-0.605533 -8.519346,-1.723422 -21.186971,-4.987944 -9.317339,-2.401134 -17.028785,-4.288867 -23.291267,-5.694947 -6.262483,-1.406081 -11.077626,-2.33109 -14.61005,-2.815043 -2.234274,-0.306102 -4.938208,-0.459746 -7.377034,-0.460525 -2.438826,-7.79e-4 -4.617195,0.149019 -5.784815,0.454039 -1.34779,0.352083 -2.43158,0.758427 -3.42448,1.310227 -0.99289,0.5518 -1.89413,1.251738 -2.8724,2.19236 -0.75567,0.726586 -1.43476,1.520525 -2.08829,2.490729 -0.65354,0.970203 -1.28131,2.11731 -1.92827,3.541505 -1.29393,2.848389 -2.67158,6.812448 -4.51264,12.739039 -0.98839,3.181809 -2.15939,6.881173 -2.60836,8.218103 -0.44899,1.33693 -1.47631,4.69974 -2.28032,7.47219 -1.68565,5.81268 -3.84066,12.39167 -5.96884,18.34318 -2.12818,5.95151 -4.23193,11.273 -5.80081,14.56168 -2.06315,4.32475 -8.98543,20.293 -11.31359,26.09428 -0.79453,1.97979 -2.13646,5.25208 -2.97642,7.27111 -0.20093,0.48297 -0.24218,0.71386 -0.43206,1.19996 a 113.80964,86.788742 0 0 0 79.507154,24.8554 A 113.80964,86.788742 0 0 0 45.440957,117.09456 113.80964,86.788742 0 0 0 33.383266,78.228812 Z" /><path
           id="path1349"
           style="fill:#ffffff;fill-opacity:1;stroke:#ffffff;stroke-width:0;stroke-dasharray:none;stroke-opacity:1"
           d="m 23.42987,65.878949 c -4.000338,1.896867 -7.854232,3.538125 -11.625631,4.890649 -3.882676,1.392432 -7.6900428,2.510256 -11.49761245,3.385835 -3.80756965,0.875578 -7.61917535,1.506739 -11.52161655,1.926423 -1.927503,0.207291 -5.206068,0.290606 -8.537197,0.265937 -3.331129,-0.02467 -6.713593,-0.158281 -8.849241,-0.395663 -2.637426,-0.293155 -4.434159,-0.530608 -6.91297,-1.011858 -2.478811,-0.48125 -5.639181,-1.208198 -11.017545,-2.47127 -6.279116,-1.474609 -12.082511,-2.76461 -17.434446,-3.878791 -5.351934,-1.114181 -10.255717,-2.047717 -14.722065,-2.808556 -4.466348,-0.76084 -8.499343,-1.349683 -12.1217,-1.764266 -3.622357,-0.414584 -6.829392,-0.657536 -9.649356,-0.732949 -2.32021,-0.06205 -3.73984,-0.07683 -5.16072,0 -1.42088,0.07683 -2.84851,0.244848 -5.16873,0.557819 -6.38194,0.860856 -12.3705,1.960506 -18.01852,3.314486 -2.82402,0.676989 -5.55958,1.418114 -8.21716,2.224791 -2.65757,0.806677 -5.23458,1.67982 -7.73708,2.620454 -2.5025,0.940635 -4.93024,1.950227 -7.28902,3.02909 -2.35879,1.078862 -4.65454,2.222848 -6.88097,3.44421 -2.22643,1.221362 -4.38347,2.517146 -6.48891,3.885278 -2.10544,1.368132 -4.15705,2.813657 -6.15286,4.33283 -0.81712,0.621968 -2.75879,2.291826 -4.41662,3.684203 -1.76118,4.383544 -3.06411,8.866617 -3.89655,13.407129 0.77533,0.12861 -1.89242,1.80093 -1.1467,1.74811 0.9673,-0.0685 5.37523,-1.85126 6.45945,-2.29296 1.08422,-0.44171 2.27508,-1.09319 3.66451,-1.9848 1.38943,-0.89161 2.98175,-2.025991 4.86468,-3.444211 2.90986,-2.191696 6.0133,-4.289455 9.31331,-6.298171 3.30001,-2.008715 6.79251,-3.929933 10.48947,-5.75981 4.35242,-2.154305 8.28937,-3.797882 11.33759,-4.780383 1.52411,-0.49125 2.82459,-0.811302 3.84854,-0.953482 1.02395,-0.14218 1.76858,-0.101605 2.17631,0.142698 0.27969,0.167531 0.33922,0.55672 0.22403,1.472384 -0.2322,1.845849 -3.00839,10.372512 -6.02485,19.004775 -3.01646,8.63227 -6.27084,17.37153 -7.48105,19.65341 -0.41249,0.77778 -1.49578,3.44074 -2.40033,5.91548 -0.90456,2.47475 -3.40654,8.71902 -5.56078,13.88062 -2.15427,5.1616 -4.99573,11.9896 -6.31289,15.1714 -1.31716,3.18181 -3.30077,7.75347 -4.40862,10.1575 -0.20014,0.43431 -0.15602,0.37015 -0.34405,0.77835 3.89827,4.58678 8.35603,8.88248 13.31387,12.82985 0.18988,-0.4861 0.23113,-0.71699 0.43206,-1.19996 0.83996,-2.01903 2.18189,-5.29132 2.97642,-7.27111 2.32816,-5.80128 9.25044,-21.76953 11.31359,-26.09428 1.56888,-3.28868 3.67263,-8.61017 5.80081,-14.56168 2.12818,-5.95151 4.28319,-12.5305 5.96884,-18.34318 0.80401,-2.77245 1.83133,-6.13526 2.28032,-7.47219 0.44897,-1.33693 1.61997,-5.036294 2.60836,-8.218103 1.84106,-5.926591 3.21871,-9.89065 4.51264,-12.739039 0.64696,-1.424195 1.27473,-2.571302 1.92827,-3.541505 0.65353,-0.970204 1.33262,-1.764143 2.08829,-2.490729 0.97827,-0.940622 1.87951,-1.64056 2.8724,-2.19236 0.9929,-0.5518 2.07669,-0.958144 3.42448,-1.310227 1.16762,-0.30502 3.345989,-0.454818 5.784815,-0.454039 2.438826,7.79e-4 5.14276,0.154423 7.377034,0.460525 3.532424,0.483953 8.347567,1.408962 14.61005,2.815043 6.262482,1.40608 13.973928,3.293813 23.291267,5.694947 12.667625,3.264522 17.409703,4.382411 21.186971,4.987944 4.497906,0.721054 8.660217,1.241559 12.729786,1.58265 4.069569,0.341091 8.0466198,0.498593 12.1617057,0.499443 3.3490602,6.88e-4 5.7436771,-0.07286 7.6410718,-0.272423 1.8973947,-0.199565 3.2969831,-0.52156 4.6646542,-1.018345 0.8092319,-0.293946 2.8989803,-0.871447 4.6406513,-1.284282 2.303368,-0.545981 4.044585,-1.01947 5.784811,-1.608596 1.740226,-0.589125 3.475061,-1.295036 5.760808,-2.302626 4.001921,-1.76411 6.612022,-3.073166 9.417321,-4.462556 -2.86038,-4.321081 -6.189789,-8.452108 -9.953396,-12.349863 z" /><path
           id="path1347"
           style="fill:#0000b0;fill-opacity:1;stroke:url(#linearGradient1342);stroke-width:0;stroke-dasharray:none"
           d="M -68.367006,30.30823 A 113.80964,86.788742 0 0 0 -175.9901,90.377601 c 1.65783,-1.392377 3.5995,-3.062235 4.41662,-3.684203 1.99581,-1.519173 4.04742,-2.964698 6.15286,-4.33283 2.10544,-1.368132 4.26248,-2.663916 6.48891,-3.885278 2.22643,-1.221362 4.52218,-2.365348 6.88097,-3.44421 2.35878,-1.078863 4.78652,-2.088455 7.28902,-3.02909 2.5025,-0.940634 5.07951,-1.813777 7.73708,-2.620454 2.65758,-0.806677 5.39314,-1.547802 8.21716,-2.224791 5.64802,-1.35398 11.63658,-2.45363 18.01852,-3.314486 2.32022,-0.312971 3.74785,-0.480988 5.16873,-0.557819 1.42088,-0.07683 2.84051,-0.06205 5.16072,0 2.819964,0.07541 6.026999,0.318365 9.649356,0.732949 3.622357,0.414583 7.655352,1.003426 12.1217,1.764266 4.466348,0.760839 9.370131,1.694375 14.722065,2.808556 5.351935,1.114181 11.15533,2.404182 17.434446,3.878791 5.378364,1.263072 8.538734,1.99002 11.017545,2.47127 2.478811,0.48125 4.275544,0.718703 6.91297,1.011858 2.135648,0.237382 5.518112,0.370994 8.849241,0.395663 3.331129,0.02467 6.609694,-0.05865 8.537197,-0.265937 3.9024412,-0.419684 7.7140469,-1.050845 11.52161655,-1.926423 C 4.1141962,73.279854 7.921563,72.16203 11.804239,70.769598 15.575638,69.417074 19.429532,67.775816 23.42987,65.878949 A 113.80964,86.788742 0 0 0 -68.367006,30.30823 Z" /></g></g></g></svg>
